<svg width="114" height="88" viewBox="0 0 114 88" fill="none" xmlns="http://www.w3.org/2000/svg">
<g clip-path="url(#clip0_775_1081)">
<rect x="21.6616" width="59.5692" height="59.5692" rx="15.5752" fill="#FFF8F1"/>
<path d="M43.8783 10.4591H57.5059C60.3 10.4591 62.7009 10.8773 64.7086 11.7139C66.7331 12.5505 68.2891 13.7886 69.3766 15.4282C70.4642 17.0679 71.0079 19.084 71.0079 21.4766C71.0079 23.4341 70.6733 25.1156 70.0041 26.521C69.3516 27.9097 68.423 29.0725 67.2183 30.0095C66.0304 30.9297 64.6334 31.6659 63.0272 32.218L60.643 33.4728H48.7973L48.7471 27.6002H57.5561C58.8778 27.6002 59.9737 27.3659 60.8437 26.8975C61.7138 26.429 62.3663 25.7765 62.8013 24.9399C63.253 24.1034 63.4789 23.1329 63.4789 22.0287C63.4789 20.8575 63.2614 19.8453 62.8264 18.992C62.3914 18.1387 61.7305 17.4862 60.8437 17.0344C59.957 16.5827 58.8444 16.3568 57.5059 16.3568H51.4073V47H43.8783V10.4591ZM64.3071 47L55.975 30.7122L63.9306 30.662L72.3632 46.6486V47H64.3071Z" fill="#FF7F11"/>
<rect width="19.3845" height="37.3844" transform="translate(32.2773 10)" fill="white"/>
<rect x="32.2773" y="10" width="19.3845" height="6.92304" fill="#803F08"/>
<rect x="32.2773" y="18.6851" width="19.3845" height="5.53843" fill="#803F08"/>
<rect x="32.2773" y="25.9856" width="19.3845" height="5.53843" fill="#803F08"/>
<rect x="32.2773" y="33.2861" width="19.3845" height="4.15382" fill="#803F08"/>
<rect x="32.2773" y="39.202" width="19.3845" height="2.76922" fill="#803F08"/>
<rect x="32.2773" y="43.7333" width="19.3845" height="2.76922" fill="#803F08"/>
</g>
<path d="M7.73317 77.5828C7.83426 77.9239 7.94798 78.2525 8.07434 78.5684C8.21333 78.8843 8.3776 79.2002 8.56714 79.5161C8.75668 79.8572 8.95885 80.1036 9.17366 80.2553C9.38847 80.4069 9.63487 80.4827 9.91286 80.4827C10.0645 80.4827 10.1845 80.4701 10.273 80.4448C10.3741 80.4069 10.4752 80.35 10.5762 80.2742H10.69C10.7405 80.4511 10.7721 80.628 10.7847 80.8049C10.81 80.9692 10.8226 81.1524 10.8226 81.3546C10.8226 81.7842 10.7847 82.138 10.7089 82.416C10.6331 82.6814 10.532 82.8772 10.4057 83.0036C10.2667 83.1299 10.1214 83.2184 9.96972 83.2689C9.81809 83.3321 9.63487 83.3637 9.42006 83.3637C9.10416 83.3637 8.80722 83.3132 8.52923 83.2121C8.25124 83.111 7.99221 82.9467 7.75212 82.7193C7.51204 82.4918 7.29091 82.2012 7.08874 81.8474C6.81075 81.304 6.57067 80.786 6.36849 80.2932C6.17895 79.7877 6.02732 79.2633 5.9136 78.72L7.73317 77.5828ZM0.473846 69.7169C1.25727 69.5906 2.05965 69.4958 2.88098 69.4326C3.70232 69.3694 4.49838 69.3378 5.26917 69.3378C6.15368 69.3378 6.90552 69.4516 7.52468 69.679C8.14384 69.9065 8.64927 70.216 9.04099 70.6078C9.4327 70.9995 9.72332 71.4291 9.91286 71.8966C10.1024 72.3641 10.1972 72.838 10.1972 73.3182V73.5646C10.1972 74.4617 10.0645 75.2704 9.79914 75.9906C9.53378 76.6983 9.17366 77.3048 8.71877 77.8102C8.27651 78.3157 7.7774 78.701 7.22142 78.9664C6.66544 79.2318 6.09682 79.3644 5.51557 79.3644C5.26285 79.3644 5.03541 79.3328 4.83323 79.2697C4.63106 79.2065 4.46679 79.1054 4.34043 78.9664L3.65809 78.9854V77.0521C3.79709 77.1026 3.9424 77.1405 4.09403 77.1658C4.2583 77.1784 4.51102 77.1847 4.85218 77.1847C5.38289 77.1847 5.8441 77.0584 6.23582 76.8057C6.62753 76.5403 6.93711 76.1486 7.16455 75.6305C7.392 75.1125 7.50572 74.4743 7.50572 73.7162V73.4319C7.50572 73.2044 7.48677 72.9959 7.44886 72.8064C7.42359 72.6169 7.37305 72.4336 7.29723 72.2567C7.01924 72.1177 6.72862 72.023 6.42535 71.9724C6.12209 71.9219 5.75565 71.8966 5.32603 71.8966C4.64369 71.8966 4.0119 71.9282 3.43065 71.9914C2.86203 72.0546 2.38187 72.1177 1.99015 72.1809C1.59844 72.2441 1.32045 72.2757 1.15618 72.2757C0.890831 72.2757 0.694974 72.143 0.568615 71.8777C0.442256 71.5997 0.379077 71.1953 0.379077 70.6646C0.379077 70.4751 0.385395 70.3045 0.398031 70.1529C0.423303 70.0012 0.448574 69.8559 0.473846 69.7169ZM4.4352 82.9846C4.28357 83.0225 4.13826 83.0478 3.99926 83.0604C3.86027 83.0857 3.696 83.0983 3.50646 83.0983C2.82412 83.0983 2.31869 82.953 1.99015 82.6624C1.66162 82.3591 1.49735 81.8727 1.49735 81.203C1.49735 80.3943 1.49735 79.5919 1.49735 78.7958C1.49735 77.9871 1.49735 77.1784 1.49735 76.3697C1.49735 75.561 1.49735 74.7523 1.49735 73.9436C1.49735 73.1349 1.49735 72.3326 1.49735 71.5365H3.77182L3.56332 72.0862C3.79077 72.2378 3.95504 72.4463 4.05612 72.7116C4.16985 72.977 4.22671 73.3055 4.22671 73.6972C4.22671 74.5186 4.22671 75.3462 4.22671 76.1802C4.22671 77.0142 4.22671 77.8544 4.22671 78.701C4.22671 79.535 4.22671 80.369 4.22671 81.203C4.22671 81.5189 4.23934 81.8284 4.26462 82.1317C4.28989 82.4223 4.34675 82.7066 4.4352 82.9846ZM21.0314 76.275C21.0314 76.5529 21.0314 76.8309 21.0314 77.1089C21.0314 77.3869 21.0314 77.6649 21.0314 77.9429C21.0314 78.2082 21.0314 78.4799 21.0314 78.7579C21.0314 79.0359 21.0314 79.3139 21.0314 79.5919C21.0314 79.7435 21.0314 79.8951 21.0314 80.0468C21.0314 80.1858 21.0314 80.3311 21.0314 80.4827C21.0819 80.508 21.1451 80.5333 21.2209 80.5585C21.2967 80.5712 21.3599 80.5775 21.4104 80.5775C21.5494 80.5775 21.6884 80.5585 21.8274 80.5206C21.9664 80.4701 22.0991 80.3943 22.2255 80.2932H22.3392C22.3518 80.369 22.3581 80.4385 22.3581 80.5017C22.3708 80.5522 22.3771 80.6217 22.3771 80.7102C22.3771 81.064 22.3139 81.4178 22.1876 81.7716C22.0738 82.1127 21.9222 82.3781 21.7327 82.5676C21.5305 82.7698 21.3346 82.9088 21.1451 82.9846C20.9556 83.0731 20.766 83.1173 20.5765 83.1173C20.2479 83.1173 19.9384 83.0288 19.6477 82.8519C19.3697 82.6624 19.1297 82.4286 18.9275 82.1506C18.7379 81.86 18.5863 81.5441 18.4726 81.203C18.3589 80.8618 18.302 80.5396 18.302 80.2363C18.302 79.9457 18.302 79.6614 18.302 79.3834C18.302 79.0928 18.302 78.8211 18.302 78.5684C18.302 78.2651 18.3146 77.9555 18.3399 77.6396C18.3652 77.3237 18.4031 76.9889 18.4536 76.6351C18.5168 76.2813 18.5863 75.8959 18.6621 75.4789C18.4221 75.3652 18.182 75.2767 17.9419 75.2135C17.7144 75.1504 17.468 75.1061 17.2027 75.0809C16.95 75.0556 16.6657 75.043 16.3498 75.043C15.9707 75.043 15.6232 75.0619 15.3073 75.0998C14.9914 75.1251 14.6818 75.1693 14.3786 75.2325C14.0753 75.283 13.7594 75.3589 13.4309 75.4599H13.3171C13.3045 75.3462 13.2856 75.2199 13.2603 75.0809C13.2477 74.9292 13.2413 74.7776 13.2413 74.626C13.2413 74.3606 13.2792 74.1016 13.3551 73.8489C13.4309 73.5961 13.5509 73.3877 13.7152 73.2234C13.8668 73.0844 14.069 72.9707 14.3217 72.8822C14.5744 72.7811 14.9156 72.7116 15.3452 72.6737C15.7748 72.6232 16.3119 72.5979 16.9563 72.5979C17.6134 72.5979 18.1883 72.7053 18.6811 72.9201C19.1865 73.1349 19.6098 73.4256 19.951 73.792C20.3048 74.1584 20.5702 74.5565 20.7471 74.9861C20.9366 75.4157 21.0314 75.8453 21.0314 76.275ZM15.0419 80.0468C15.0419 80.3879 15.1114 80.6217 15.2504 80.7481C15.4021 80.8744 15.6864 80.9376 16.1034 80.9376C16.3687 80.9376 16.6404 80.8934 16.9184 80.8049C17.1964 80.7165 17.4744 80.5775 17.7523 80.3879C18.0303 80.1984 18.2957 79.9457 18.5484 79.6298L18.7 81.165H18.3778C18.2136 81.4936 17.9735 81.8158 17.6576 82.1317C17.3543 82.435 16.9942 82.6877 16.5772 82.8898C16.1602 83.0794 15.7117 83.1742 15.2315 83.1742C14.6123 83.1742 14.0816 83.0668 13.6394 82.8519C13.2097 82.6245 12.8812 82.296 12.6538 81.8663C12.4263 81.4241 12.3126 80.8681 12.3126 80.1984V80.0657C12.3126 79.7119 12.401 79.3644 12.5779 79.0233C12.7675 78.6695 13.0139 78.3409 13.3171 78.0377C13.633 77.7344 13.9932 77.4943 14.3975 77.3174C14.8145 77.1405 15.2441 77.0521 15.6864 77.0521C16.2297 77.0521 16.7288 77.0837 17.1837 77.1468C17.6513 77.1974 18.0556 77.2795 18.3968 77.3932C18.738 77.4943 18.978 77.6144 19.117 77.7534C19.1928 77.8165 19.2623 77.905 19.3255 78.0187C19.3887 78.1324 19.4392 78.2714 19.4772 78.4357C19.5151 78.6 19.534 78.8021 19.534 79.0422C19.1928 78.9538 18.839 78.8843 18.4726 78.8337C18.1188 78.7832 17.7713 78.7453 17.4301 78.72C17.089 78.6947 16.7667 78.6821 16.4635 78.6821C16.1981 78.6821 15.9644 78.701 15.7622 78.739C15.56 78.7642 15.3705 78.8211 15.1936 78.9095C15.143 79.0991 15.1051 79.2823 15.0799 79.4592C15.0546 79.6235 15.0419 79.8067 15.0419 80.0089V80.0468ZM33.0597 82.9846C32.8828 83.0225 32.7185 83.0478 32.5669 83.0604C32.4152 83.0731 32.251 83.0794 32.0741 83.0794C31.5939 83.0794 31.1832 83.0099 30.8421 82.8709C30.5135 82.7319 30.2608 82.4792 30.0839 82.1127C29.9196 81.7337 29.8375 81.2093 29.8375 80.5396C29.8375 80.0468 29.8628 79.554 29.9133 79.0612C29.9639 78.5557 30.027 78.044 30.1029 77.5259C30.1913 76.9952 30.2861 76.4392 30.3872 75.858C30.2861 75.7063 30.1724 75.5926 30.046 75.5168C29.9323 75.441 29.7996 75.4031 29.648 75.4031C29.3447 75.4031 29.0414 75.4852 28.7382 75.6495C28.4476 75.8137 28.1569 76.0791 27.8663 76.4455C27.5883 76.812 27.3103 77.2985 27.0323 77.905C26.767 78.5115 26.5079 79.2633 26.2552 80.1605V75.858H26.748C27.0007 75.2262 27.323 74.6639 27.7147 74.1711C28.1064 73.6783 28.5486 73.2866 29.0414 72.9959C29.5342 72.7053 30.0397 72.56 30.5577 72.56C30.861 72.56 31.139 72.6548 31.3917 72.8443C31.6444 73.0212 31.8656 73.2613 32.0551 73.5646C32.2446 73.8678 32.3963 74.2027 32.51 74.5691C32.6237 74.9356 32.6806 75.302 32.6806 75.6684C32.6806 76.1486 32.6806 76.6351 32.6806 77.1279C32.6806 77.6207 32.6806 78.1135 32.6806 78.6063C32.6806 79.0864 32.6806 79.5729 32.6806 80.0657C32.6806 80.647 32.7058 81.1461 32.7564 81.5631C32.8069 81.9801 32.908 82.4539 33.0597 82.9846ZM26.6343 83.0036C26.5458 83.0162 26.4574 83.0225 26.3689 83.0225C26.2931 83.0352 26.2173 83.0415 26.1415 83.0415C26.0657 83.0415 25.9836 83.0415 25.8951 83.0415C25.5539 83.0415 25.2633 83.0099 25.0232 82.9467C24.7831 82.8709 24.5936 82.7635 24.4546 82.6245C24.3156 82.4855 24.2145 82.3212 24.1513 82.1317C24.1008 81.9422 24.0755 81.7273 24.0755 81.4873C24.0755 80.8555 24.0755 80.2489 24.0755 79.6677C24.0755 79.0738 24.0755 78.4989 24.0755 77.9429C24.0755 77.3743 24.0755 76.8183 24.0755 76.275C24.0755 75.719 24.0755 75.1693 24.0755 74.626C24.0755 74.2848 24.0503 73.95 23.9997 73.6214C23.9492 73.2929 23.8544 73.0149 23.7154 72.7874C23.8165 72.7622 23.9049 72.7432 23.9808 72.7306C24.0692 72.718 24.1577 72.7053 24.2461 72.6927C24.3346 72.68 24.4167 72.6737 24.4925 72.6737C24.9095 72.6737 25.2823 72.7685 25.6108 72.958C25.9393 73.1349 26.192 73.4445 26.3689 73.8868C26.5458 74.329 26.6343 74.9482 26.6343 75.7442C26.6343 76.5656 26.6343 77.4059 26.6343 78.2651C26.6343 79.1117 26.6343 79.9394 26.6343 80.7481C26.6343 81.5441 26.6343 82.296 26.6343 83.0036ZM38.9469 72.56C39.3386 72.56 39.6924 72.6295 40.0083 72.7685C40.3368 72.9075 40.6212 73.0907 40.8612 73.3182C41.114 73.5456 41.3098 73.7857 41.4488 74.0384H41.8468V75.9338C41.5688 75.6179 41.2719 75.3904 40.956 75.2514C40.6401 75.1125 40.261 75.043 39.8188 75.043C39.326 75.043 38.909 75.1756 38.5678 75.441C38.2393 75.6937 37.9929 76.0791 37.8286 76.5972C37.677 77.1152 37.6012 77.747 37.6012 78.4926V78.701C37.6012 79.0675 37.6075 79.3771 37.6201 79.6298C37.6328 79.8699 37.6644 80.091 37.7149 80.2932C37.7907 80.3564 37.8665 80.4006 37.9423 80.4258C38.0182 80.4511 38.1003 80.4638 38.1887 80.4638C38.7068 80.4638 39.1807 80.35 39.6103 80.1226C40.0399 79.8951 40.4316 79.5161 40.7854 78.9854C41.1392 78.442 41.4551 77.7281 41.7331 76.8436V80.1605H41.4299C41.215 80.7165 40.9181 81.2282 40.539 81.6958C40.1726 82.1506 39.7619 82.5171 39.307 82.7951C38.8521 83.0731 38.3846 83.2121 37.9044 83.2121C37.5254 83.2121 37.1526 83.111 36.7862 82.9088C36.4324 82.694 36.1165 82.4097 35.8385 82.0559C35.5731 81.6894 35.3583 81.2725 35.194 80.8049C35.0298 80.3248 34.9476 79.813 34.9476 79.2697V78.8716C34.9476 77.7597 35.0614 76.8057 35.2888 76.0096C35.5162 75.2009 35.8195 74.5438 36.1986 74.0384C36.5903 73.533 37.0199 73.1602 37.4874 72.9201C37.9676 72.68 38.4541 72.56 38.9469 72.56ZM41.9606 68.6555C42.3396 68.6555 42.6934 68.744 43.022 68.9209C43.3505 69.0978 43.6095 69.4137 43.7991 69.8686C44.0013 70.3108 44.1023 70.93 44.1023 71.726C44.1023 72.5095 44.1023 73.2866 44.1023 74.0574C44.1023 74.8155 44.1023 75.5673 44.1023 76.3129C44.1023 77.0584 44.1023 77.8039 44.1023 78.5494C44.1023 79.2949 44.1023 80.0468 44.1023 80.8049C44.1023 81.1966 44.1213 81.5631 44.1592 81.9042C44.2097 82.2454 44.2982 82.5992 44.4246 82.9657C44.3361 82.9783 44.254 82.9909 44.1782 83.0036C44.1023 83.0288 44.0265 83.0478 43.9507 83.0604C43.8749 83.0857 43.7991 83.0983 43.7233 83.0983C43.6475 83.111 43.5653 83.1173 43.4769 83.1173C43.0093 83.1173 42.6303 82.9846 42.3396 82.7193C42.0616 82.4413 41.8595 82.0875 41.7331 81.6578C41.6068 81.2156 41.5436 80.7607 41.5436 80.2932C41.5436 79.3455 41.5436 78.4736 41.5436 77.6775C41.5436 76.8815 41.5436 76.117 41.5436 75.3841C41.5436 74.6386 41.5436 73.8805 41.5436 73.1097C41.5436 72.3262 41.5436 71.4923 41.5436 70.6078C41.5436 70.2666 41.5183 69.9317 41.4678 69.6032C41.4172 69.2747 41.3224 68.9904 41.1834 68.7503C41.2593 68.7376 41.3288 68.725 41.3919 68.7124C41.4551 68.6997 41.5183 68.6934 41.5815 68.6934C41.6447 68.6808 41.7078 68.6745 41.771 68.6745C41.8342 68.6618 41.8974 68.6555 41.9606 68.6555ZM51.2026 72.56C51.8344 72.56 52.4283 72.68 52.9843 72.9201C53.5529 73.1476 54.052 73.4951 54.4816 73.9626C54.9239 74.4301 55.2714 75.0177 55.5241 75.7253C55.7768 76.4203 55.9032 77.2416 55.9032 78.1893V78.4357C55.9032 79.3834 55.6947 80.2174 55.2777 80.9376C54.8734 81.6578 54.3111 82.2201 53.5908 82.6245C52.8706 83.0162 52.0303 83.2121 51.07 83.2121C50.4255 83.2121 49.819 83.1173 49.2504 82.9278C48.6944 82.7256 48.2016 82.4286 47.772 82.0369C47.3424 81.6452 47.0012 81.1461 46.7485 80.5396C46.5084 79.933 46.3884 79.2254 46.3884 78.4167V78.1703C46.3884 77.0457 46.5905 76.0665 46.9949 75.2325C47.4119 74.3859 47.9805 73.7288 48.7007 73.2613C49.421 72.7938 50.2549 72.56 51.2026 72.56ZM51.5248 74.9671C50.931 74.9671 50.4382 75.0935 50.0464 75.3462C49.6547 75.5863 49.3578 75.9591 49.1556 76.4645C48.9661 76.9573 48.8713 77.5891 48.8713 78.3599V78.4926C48.8713 78.9095 48.9029 79.3013 48.9661 79.6677C49.0293 80.0341 49.1303 80.369 49.2693 80.6722C49.4841 80.7228 49.699 80.7607 49.9138 80.786C50.1286 80.7986 50.3876 80.8049 50.6909 80.8049C51.31 80.8049 51.8155 80.7165 52.2072 80.5396C52.6115 80.3627 52.9148 80.0847 53.117 79.7056C53.3191 79.3139 53.4202 78.8274 53.4202 78.2462V78.1135C53.4202 77.507 53.376 76.9573 53.2876 76.4645C53.1991 75.9717 53.0601 75.5231 52.8706 75.1188C52.6937 75.0556 52.4978 75.0177 52.283 75.005C52.0808 74.9798 51.8281 74.9671 51.5248 74.9671ZM67.7798 82.9846C67.6661 83.0099 67.5587 83.0288 67.4576 83.0415C67.3565 83.0541 67.2491 83.0604 67.1354 83.0604C67.0343 83.0731 66.9206 83.0794 66.7942 83.0794C66.3267 83.0794 65.9476 83.0099 65.657 82.8709C65.3664 82.7319 65.1579 82.4792 65.0315 82.1127C64.9052 81.7463 64.842 81.2282 64.842 80.5585C64.842 80.2553 64.8483 79.952 64.8609 79.6487C64.8736 79.3328 64.8862 79.0106 64.8989 78.6821C64.9115 78.3536 64.9368 78.0187 64.9747 77.6775C65.0126 77.3237 65.0505 76.9573 65.0884 76.5782C65.1263 76.1991 65.1768 75.8074 65.24 75.4031C65.1895 75.3399 65.1263 75.2957 65.0505 75.2704C64.9747 75.2325 64.8925 75.2135 64.8041 75.2135C64.564 75.2135 64.3366 75.2957 64.1217 75.4599C63.9069 75.6116 63.7111 75.839 63.5342 76.1423C63.3573 76.4329 63.2056 76.7867 63.0793 77.2037V74.607H63.3825C63.5721 74.2153 63.7869 73.8678 64.027 73.5646C64.2671 73.2613 64.5198 73.0212 64.7851 72.8443C65.0631 72.6548 65.3348 72.56 65.6001 72.56C65.8276 72.56 66.0424 72.6421 66.2446 72.8064C66.4594 72.958 66.6552 73.1539 66.8321 73.394C67.0091 73.6214 67.148 73.8678 67.2491 74.1332C67.3629 74.3985 67.4197 74.6386 67.4197 74.8534C67.4197 75.2957 67.4197 75.7379 67.4197 76.1802C67.4197 76.6098 67.4197 77.0394 67.4197 77.469C67.4197 77.8987 67.4197 78.3283 67.4197 78.7579C67.4197 79.1875 67.4197 79.6235 67.4197 80.0657C67.4197 80.647 67.445 81.1461 67.4955 81.5631C67.5461 81.9801 67.6408 82.4539 67.7798 82.9846ZM63.2688 82.9846C63.2436 82.9973 63.212 83.0036 63.1741 83.0036C63.1361 83.0162 63.0982 83.0225 63.0603 83.0225C63.0224 83.0352 62.9782 83.0415 62.9277 83.0415C62.6244 83.0415 62.3717 82.9783 62.1695 82.8519C61.9673 82.7129 61.8157 82.5045 61.7146 82.2265C61.6262 81.9485 61.5819 81.582 61.5819 81.1271C61.5819 80.8112 61.5819 80.4953 61.5819 80.1794C61.5946 79.8509 61.6072 79.5161 61.6198 79.1749C61.6451 78.8211 61.6704 78.4546 61.6957 78.0756C61.7209 77.6965 61.7525 77.2921 61.7904 76.8625C61.841 76.4329 61.8852 75.9717 61.9231 75.4789C61.8852 75.4157 61.841 75.3652 61.7904 75.3273C61.7525 75.2894 61.7083 75.2641 61.6577 75.2514C61.6072 75.2262 61.544 75.2135 61.4682 75.2135C61.2787 75.2135 61.0891 75.2894 60.8996 75.441C60.7227 75.5926 60.5458 75.8137 60.3689 76.1044C60.192 76.395 60.0151 76.7741 59.8382 77.2416L59.7813 74.626H60.0846C60.2236 74.209 60.3878 73.8552 60.5774 73.5646C60.7796 73.2613 60.9944 73.0275 61.2218 72.8633C61.4493 72.6864 61.683 72.5979 61.9231 72.5979C62.1379 72.5979 62.3274 72.6737 62.4917 72.8254C62.656 72.977 62.795 73.1728 62.9087 73.4129C63.0224 73.6404 63.1109 73.8678 63.1741 74.0953C63.2372 74.3227 63.2688 74.5249 63.2688 74.7018C63.2688 75.3968 63.2688 76.0917 63.2688 76.7867C63.2815 77.469 63.2878 78.1577 63.2878 78.8527C63.2878 79.535 63.2815 80.2237 63.2688 80.9186C63.2688 81.601 63.2688 82.2896 63.2688 82.9846ZM60.0088 83.0036C59.9456 83.0162 59.8761 83.0288 59.8003 83.0415C59.7245 83.0541 59.6486 83.0604 59.5728 83.0604C59.497 83.0731 59.4149 83.0794 59.3264 83.0794C59.238 83.092 59.1432 83.0983 59.0421 83.0983C58.802 83.0983 58.5935 83.0857 58.4166 83.0604C58.2397 83.0352 58.0881 82.9846 57.9617 82.9088C57.848 82.833 57.7596 82.7256 57.6964 82.5866C57.6332 82.4476 57.6016 82.2644 57.6016 82.0369C57.6016 81.2156 57.6016 80.4006 57.6016 79.5919C57.6016 78.7705 57.6016 77.9555 57.6016 77.1468C57.6016 76.3255 57.6016 75.5105 57.6016 74.7018C57.6016 74.3227 57.5827 73.9879 57.5448 73.6972C57.5195 73.394 57.4626 73.0781 57.3742 72.7495C57.4247 72.7369 57.4816 72.7243 57.5448 72.7116C57.6079 72.699 57.6648 72.6927 57.7153 72.6927C57.7785 72.68 57.8417 72.6737 57.9049 72.6737C57.9681 72.6737 58.0312 72.6737 58.0944 72.6737C58.3471 72.6737 58.5872 72.7243 58.8147 72.8254C59.0421 72.9264 59.2443 73.0781 59.4212 73.2802C59.6107 73.4698 59.756 73.7162 59.8571 74.0194C59.9582 74.3227 60.0088 74.6828 60.0088 75.0998C60.0088 75.9717 60.0088 76.8499 60.0088 77.7344C60.0088 78.6189 60.0088 79.4971 60.0088 80.369C60.0088 81.2409 60.0088 82.1191 60.0088 83.0036ZM84.7856 80.8049C85.0888 80.8049 85.3605 80.7797 85.6006 80.7291C85.8533 80.6659 86.0934 80.5775 86.3208 80.4638C86.3714 80.2869 86.4093 80.11 86.4346 79.933C86.4598 79.7435 86.4725 79.5413 86.4725 79.3265C86.4851 79.1117 86.4914 78.878 86.4914 78.6252C86.4914 78.0819 86.4914 77.5322 86.4914 76.9762C86.4914 76.4076 86.4914 75.8264 86.4914 75.2325C86.4914 74.6386 86.4914 74.0194 86.4914 73.375C86.4914 72.7306 86.4914 72.0546 86.4914 71.347L86.9653 72.162L85.9607 71.6502L86.9463 71.6692C86.5799 71.7955 86.2198 71.9093 85.866 72.0103C85.5248 72.1114 85.1962 72.1936 84.8804 72.2567C84.5645 72.3199 84.2612 72.3705 83.9706 72.4084C83.6799 72.4336 83.3956 72.4463 83.1176 72.4463C82.8397 72.4463 82.6059 72.3894 82.4164 72.2757C82.2268 72.1493 82.0878 71.9661 81.9994 71.726C81.9109 71.4733 81.8667 71.1574 81.8667 70.7783C81.8667 70.5509 81.873 70.3487 81.8856 70.1718C81.9109 69.9949 81.9362 69.8433 81.9615 69.7169C82.3658 69.6917 82.7638 69.6727 83.1556 69.6601C83.5599 69.6348 83.9579 69.6158 84.3496 69.6032C84.754 69.5779 85.1583 69.5653 85.5627 69.5653C85.967 69.5527 86.3651 69.5463 86.7568 69.5463C87.338 69.5463 87.8056 69.6095 88.1594 69.7359C88.5258 69.8496 88.7912 70.0265 88.9554 70.2666C89.1197 70.494 89.2018 70.7973 89.2018 71.1764C89.2018 71.7324 89.2018 72.3199 89.2018 72.9391C89.2018 73.5456 89.2018 74.1837 89.2018 74.8534C89.2018 75.5105 89.2018 76.1865 89.2018 76.8815C89.2018 77.5765 89.2018 78.2714 89.2018 78.9664C89.2018 79.4718 89.1007 79.9899 88.8986 80.5206C88.709 81.0387 88.4184 81.5125 88.0267 81.9422C87.635 82.3718 87.1485 82.7193 86.5672 82.9846C85.9986 83.2373 85.3226 83.3637 84.5392 83.3637C84.1601 83.3637 83.7937 83.3321 83.4399 83.2689C83.0861 83.2057 82.7638 83.1173 82.4732 83.0036C82.1952 82.8898 81.9741 82.7445 81.8098 82.5676C81.6835 82.4413 81.5761 82.3086 81.4876 82.1696C81.3992 82.018 81.336 81.8411 81.2981 81.6389C81.2602 81.4367 81.2412 81.203 81.2412 80.9376C81.2412 80.6722 81.2538 80.4448 81.2791 80.2553C81.3044 80.0657 81.3297 79.8951 81.3549 79.7435H81.4687C81.8351 79.9962 82.1889 80.1984 82.5301 80.35C82.8839 80.5017 83.2377 80.6154 83.5915 80.6912C83.9579 80.767 84.356 80.8049 84.7856 80.8049ZM96.6622 72.56C97.294 72.56 97.8879 72.68 98.4439 72.9201C99.0125 73.1476 99.5116 73.4951 99.9413 73.9626C100.384 74.4301 100.731 75.0177 100.984 75.7253C101.236 76.4203 101.363 77.2416 101.363 78.1893V78.4357C101.363 79.3834 101.154 80.2174 100.737 80.9376C100.333 81.6578 99.7707 82.2201 99.0504 82.6245C98.3302 83.0162 97.4899 83.2121 96.5296 83.2121C95.8851 83.2121 95.2786 83.1173 94.71 82.9278C94.154 82.7256 93.6612 82.4286 93.2316 82.0369C92.802 81.6452 92.4608 81.1461 92.2081 80.5396C91.968 79.933 91.848 79.2254 91.848 78.4167V78.1703C91.848 77.0457 92.0501 76.0665 92.4545 75.2325C92.8715 74.3859 93.4401 73.7288 94.1603 73.2613C94.8806 72.7938 95.7146 72.56 96.6622 72.56ZM96.9845 74.9671C96.3906 74.9671 95.8978 75.0935 95.5061 75.3462C95.1143 75.5863 94.8174 75.9591 94.6152 76.4645C94.4257 76.9573 94.3309 77.5891 94.3309 78.3599V78.4926C94.3309 78.9095 94.3625 79.3013 94.4257 79.6677C94.4889 80.0341 94.59 80.369 94.729 80.6722C94.9438 80.7228 95.1586 80.7607 95.3734 80.786C95.5882 80.7986 95.8472 80.8049 96.1505 80.8049C96.7696 80.8049 97.2751 80.7165 97.6668 80.5396C98.0711 80.3627 98.3744 80.0847 98.5766 79.7056C98.7788 79.3139 98.8798 78.8274 98.8798 78.2462V78.1135C98.8798 77.507 98.8356 76.9573 98.7472 76.4645C98.6587 75.9717 98.5197 75.5231 98.3302 75.1188C98.1533 75.0556 97.9574 75.0177 97.7426 75.005C97.5404 74.9798 97.2877 74.9671 96.9845 74.9671ZM110.927 72.6548C111.496 72.6548 111.951 72.7622 112.292 72.977C112.646 73.1918 112.791 73.5898 112.728 74.1711C112.614 75.561 112.443 76.8309 112.216 77.9808C111.989 79.118 111.711 80.1352 111.382 81.0324C111.053 81.9169 110.687 82.694 110.283 83.3637C109.878 84.046 109.442 84.621 108.975 85.0885C108.621 85.4423 108.261 85.7456 107.894 85.9983C107.541 86.251 107.187 86.4405 106.833 86.5669C106.479 86.7059 106.113 86.7754 105.734 86.7754C105.62 86.7754 105.513 86.7628 105.412 86.7375C105.31 86.7248 105.216 86.6996 105.127 86.6617C105.039 86.6364 104.95 86.5922 104.862 86.529C104.786 86.4784 104.704 86.4153 104.615 86.3394C104.451 86.1625 104.319 85.8909 104.217 85.5244C104.116 85.1706 104.066 84.7663 104.066 84.3114V84.2356H104.18C104.23 84.2356 104.281 84.2356 104.331 84.2356C104.394 84.2356 104.451 84.2356 104.502 84.2356C105.045 84.2356 105.595 84.1345 106.151 83.9323C106.707 83.7428 107.218 83.4142 107.686 82.9467C107.913 82.7066 108.135 82.3907 108.349 81.999C108.577 81.5947 108.779 81.1082 108.956 80.5396C109.145 79.9583 109.31 79.2886 109.449 78.5305C109.588 77.7597 109.695 76.9004 109.771 75.9527C109.859 74.9924 109.904 73.9373 109.904 72.7874C110.005 72.7622 110.099 72.7432 110.188 72.7306C110.289 72.7053 110.377 72.6927 110.453 72.6927C110.542 72.68 110.624 72.6737 110.7 72.6737C110.775 72.6611 110.851 72.6548 110.927 72.6548ZM104.142 72.6737C104.748 72.6737 105.209 72.7622 105.525 72.9391C105.854 73.116 106.037 73.4319 106.075 73.8868C106.138 74.6197 106.227 75.2957 106.34 75.9148C106.454 76.5214 106.587 77.09 106.738 77.6207C106.89 78.1388 107.067 78.6126 107.269 79.0422C107.471 79.4592 107.686 79.832 107.913 80.1605C108.154 80.489 108.413 80.767 108.691 80.9945H109.316L108.785 82.4918H108.653C108.21 82.4918 107.819 82.4602 107.477 82.397C107.136 82.3212 106.833 82.2012 106.568 82.0369C106.315 81.8727 106.069 81.6515 105.829 81.3735C105.588 81.0956 105.355 80.786 105.127 80.4448C104.912 80.091 104.698 79.6866 104.483 79.2318C104.281 78.7642 104.091 78.2272 103.914 77.6207C103.737 77.0015 103.573 76.2939 103.421 75.4978C103.282 74.7018 103.175 73.7983 103.099 72.7874C103.2 72.7622 103.289 72.7432 103.365 72.7306C103.453 72.7053 103.535 72.6927 103.611 72.6927C103.699 72.68 103.788 72.6737 103.876 72.6737C103.965 72.6737 104.053 72.6737 104.142 72.6737Z" fill="white"/>
<defs>
<clipPath id="clip0_775_1081">
<rect x="21.6616" width="59.5692" height="59.5692" rx="15.5752" fill="white"/>
</clipPath>
</defs>
</svg>
